# xmcd
#
# Track frame offsets: 
#        150
#        20657
#        57825
#        72102
#        89754
#        129720
#        149802
#        165477
#        179122
#
# Disc length: 2703 seconds
#
# Revision: 0
# Processed by: cddbd v1.5.2PL0 Copyright (c) Steve Scherf et al.
# Submitted via: ExactAudioCopy v0.99pb4
#
DISCID=8c0a8d09
DTITLE=Bobby Rush - Sue
DYEAR=1982
DGENRE=Blues
TTITLE0=Be Still
TTITLE1=Twenty-Eight Days
TTITLE2=Woman's Name Is Trouble
TTITLE3=Straddle The Fence
TTITLE4=Sue
TTITLE5=Think, Pt. 1
TTITLE6=Think, Pt. 2
TTITLE7=Talk To Your Daughter
TTITLE8=In The Morning
EXTD=
EXTT0=
EXTT1=
EXTT2=
EXTT3=
EXTT4=
EXTT5=
EXTT6=
EXTT7=
EXTT8=
PLAYORDER=
